# File created by Blade
# Date/Time:  Mon Sep 22 17:23:16 2014
# Frame Rate: 120.000 fps
#------------------------------------------------------
:FULLY-SPECIFIED
:DEGREES
3247
root 0.646245 39.754174 -0.288586 12.488175 13.880977 -38.781442
RightUpLeg 0.175093 9.815423 -23.489038
RightLeg 131.187993 -0.000000 -0.000000
RightFoot 17.190121 -16.856898 6.385222
RightToeBase 1.530895 -0.000000 -0.000000
LeftUpLeg -18.026059 -0.904049 36.828211
LeftLeg 10.882714 -0.000000 -0.000000
LeftFoot -13.198634 7.327798 -15.991121
LeftToeBase 5.187099 -0.000000 -0.000000
Spine 0.515579 -31.310012 14.434592
RightShoulder -6.964441 -32.015056 0.557938
RightArm 17.841369 -18.682717 57.719904
RightForeArm -189.459051 0.000000 108.218630
RightHand 94.483501 -0.000000 -167.976036
RightHandThumb1 -24.326973 -0.000000 -32.862282
LeftShoulder -12.774722 30.511430 14.291053
LeftArm 64.944373 -21.877447 -63.329345
LeftForeArm 64.789040 -0.000000 124.321492
LeftHand -26.535211 -0.000000 -22.487588
LeftHandThumb1 -26.253704 0.000000 33.147579
Head 4.400164 13.174659 41.282088
3248
root 0.636199 39.758996 -0.298745 12.582132 13.931744 -38.823555
RightUpLeg 0.148729 9.813747 -23.488828
RightLeg 131.261718 -0.000000 -0.000000
RightFoot 17.234842 -16.858499 6.406419
RightToeBase 1.589767 -0.000000 -0.000000
LeftUpLeg -18.131946 -0.850682 36.897297
LeftLeg 10.838889 -0.000000 -0.000000
LeftFoot -13.190666 7.285941 -16.057811
LeftToeBase 5.288947 -0.000000 -0.000000
Spine 0.426495 -31.372865 14.513138
RightShoulder -7.006373 -31.980788 0.600645
RightArm 17.774743 -18.724972 57.748701
RightForeArm -189.487284 -0.000000 108.210919
RightHand 94.448228 -0.000000 -168.014629
RightHandThumb1 -24.326973 -0.000000 -32.862282
LeftShoulder -12.819094 30.544586 14.247174
LeftArm 65.033205 -21.958515 -63.321810
LeftForeArm 64.783788 0.000000 124.328815
LeftHand -26.430051 -0.000000 -22.615404
LeftHandThumb1 -26.253704 0.000000 33.147579
Head 4.453169 13.141947 41.394058
3249
root 0.627062 39.762400 -0.309405 12.684416 13.985935 -38.844292
RightUpLeg 0.127601 9.805870 -23.524669
RightLeg 131.332034 -0.000000 -0.000000
RightFoot 17.268227 -16.756839 6.380881
RightToeBase 1.511612 -0.000000 -0.000000
LeftUpLeg -18.256933 -0.815730 36.947219
LeftLeg 10.822692 -0.000000 -0.000000
LeftFoot -13.191963 7.233370 -16.172696
LeftToeBase 5.383300 -0.000000 -0.000000
Spine 0.329033 -31.475234 14.563165
RightShoulder -6.999987 -31.981093 0.620518
RightArm 17.707420 -18.748315 57.793231
RightForeArm -189.534558 -0.000000 108.192018
RightHand 94.418372 -0.000000 -167.994742
RightHandThumb1 -24.326973 -0.000000 -32.862282
LeftShoulder -12.895066 30.545294 14.223052
LeftArm 65.082302 -21.992595 -63.312921
LeftForeArm 64.738646 -0.000000 124.318985
LeftHand -26.417687 -0.000000 -22.627549
LeftHandThumb1 -26.253704 0.000000 33.147579
Head 4.529425 13.101818 41.495117
3250
root 0.616260 39.767016 -0.319385 12.760754 14.048532 -38.884148
RightUpLeg 0.118690 9.800604 -23.519059
RightLeg 131.396649 -0.000000 -0.000000
RightFoot 17.342704 -16.635172 6.345185
RightToeBase 1.473747 -0.000000 -0.000000
LeftUpLeg -18.369651 -0.802663 37.023146
LeftLeg 10.802830 -0.000000 -0.000000
LeftFoot -13.161905 7.216140 -16.202990
LeftToeBase 5.400000 -0.000000 -0.000000
Spine 0.268992 -31.505344 14.616529
RightShoulder -7.068434 -31.965337 0.682903
RightArm 17.614976 -18.754650 57.863723
RightForeArm -189.567760 0.000000 108.184022
RightHand 94.479382 0.000000 -167.936012
RightHandThumb1 -24.326973 -0.000000 -32.862282
LeftShoulder -12.903451 30.525068 14.225069
LeftArm 65.166085 -22.021165 -63.296830
LeftForeArm 64.676150 -0.000000 124.301080
LeftHand -26.435369 -0.000000 -22.629282
LeftHandThumb1 -26.253704 0.000000 33.147579
Head 4.534363 13.023779 41.582345
3251
root 0.607043 39.769467 -0.328659 12.818666 14.107967 -38.909790
RightUpLeg 0.121606 9.773951 -23.528439
RightLeg 131.450870 -0.000000 -0.000000
RightFoot 17.379217 -16.657004 6.356218
RightToeBase 1.451812 -0.000000 -0.000000
LeftUpLeg -18.466825 -0.820634 37.085821
LeftLeg 10.790794 -0.000000 -0.000000
LeftFoot -13.170104 7.200877 -16.283712
LeftToeBase 5.506518 -0.000000 -0.000000
Spine 0.247557 -31.519621 14.637544
RightShoulder -7.150938 -31.971373 0.751286
RightArm 17.534537 -18.735818 57.938110
RightForeArm -189.537214 0.000000 108.171436
RightHand 94.461727 -0.000000 -168.029904
RightHandThumb1 -24.326973 -0.000000 -32.862282
LeftShoulder -12.848904 30.391574 14.306639
LeftArm 65.118831 -21.998582 -63.275541
LeftForeArm 64.654115 -0.000000 124.319763
LeftHand -26.440704 -0.000000 -22.652681
LeftHandThumb1 -26.253704 0.000000 33.147579
Head 4.484797 12.944671 41.641363
3252
root 0.595851 39.772581 -0.338361 12.880450 14.162424 -38.950027
RightUpLeg 0.098881 9.748676 -23.518143
RightLeg 131.511096 -0.000000 -0.000000
RightFoot 17.433852 -16.638919 6.373328
RightToeBase 1.398688 -0.000000 -0.000000
LeftUpLeg -18.570987 -0.795537 37.152871
LeftLeg 10.788542 -0.000000 -0.000000
LeftFoot -13.150862 7.184195 -16.299262
LeftToeBase 5.544293 -0.000000 -0.000000
Spine 0.217075 -31.543297 14.680287
RightShoulder -7.186255 -31.998047 0.785247
RightArm 17.446687 -18.709478 58.039604
RightForeArm -189.528753 0.000000 108.172631
RightHand 94.427153 -0.000000 -167.932561
RightHandThumb1 -24.326973 -0.000000 -32.862282
LeftShoulder -12.897891 30.436713 14.246369
LeftArm 65.301306 -22.069613 -63.248094
LeftForeArm 64.621215 -0.000000 124.302696
LeftHand -26.455166 -0.000000 -22.653238
LeftHandThumb1 -26.253704 0.000000 33.147579
Head 4.443322 12.927975 41.687768
3253
root 0.585909 39.775093 -0.349915 12.947947 14.205755 -38.992601
RightUpLeg 0.054726 9.729247 -23.507343
RightLeg 131.577455 -0.000000 -0.000000
RightFoot 17.445690 -16.582699 6.394931
RightToeBase 1.355182 -0.000000 -0.000000
LeftUpLeg -18.686151 -0.751375 37.216536
LeftLeg 10.808970 -0.000000 -0.000000
LeftFoot -13.134419 7.164428 -16.300302
LeftToeBase 5.536432 -0.000000 -0.000000
Spine 0.186168 -31.540959 14.722930
RightShoulder -7.223177 -32.064992 0.821130
RightArm 17.394804 -18.653968 58.127663
RightForeArm -189.512380 -0.000000 108.170377
RightHand 94.455251 -0.000000 -167.928076
RightHandThumb1 -24.326973 -0.000000 -32.862282
LeftShoulder -12.853107 30.341700 14.319608
LeftArm 65.277770 -22.064784 -63.239170
LeftForeArm 64.568645 -0.000000 124.336162
LeftHand -26.459872 -0.000000 -22.645932
LeftHandThumb1 -26.253704 0.000000 33.147579
Head 4.398364 12.931728 41.736941
